<svg width="126" height="123" viewBox="0 0 126 123" fill="none" xmlns="http://www.w3.org/2000/svg">
<g clip-path="url(#clip0_80_5335)">
<g clip-path="url(#clip1_80_5335)">
<g filter="url(#filter0_f_80_5335)">
<path opacity="0.2" fill-rule="evenodd" clip-rule="evenodd" d="M120.96 81.154L120.807 81.052C119.164 79.964 117.525 78.878 115.787 77.928C109.814 74.66 102.914 72.528 96.0776 72.436C95.7912 72.4325 95.5151 72.5426 95.3097 72.7422C95.1043 72.9418 94.9863 73.2146 94.9816 73.501C94.9784 73.7873 95.0887 74.0632 95.2886 74.2682C95.4884 74.4733 95.7613 74.5908 96.0476 74.595C102.535 74.679 109.081 76.721 114.748 79.822C116.465 80.762 118.085 81.837 119.709 82.913C120.566 83.4879 121.431 84.0529 122.302 84.608C122.642 84.832 123.36 85.304 123.571 85.375C124.182 85.587 124.571 85.285 124.733 85.121C124.869 84.987 125.001 84.793 125.064 84.511C125.114 84.28 125.106 83.818 124.963 83.203C124.667 81.902 123.821 79.523 123.222 77.837C122.913 76.967 122.669 76.281 122.6 76.022C120.544 68.345 119.752 60.835 118.93 53.051C118.82 52.003 118.709 50.951 118.594 49.891C118.562 49.6063 118.418 49.3458 118.195 49.1663C117.972 48.9868 117.686 48.9029 117.402 48.933C117.261 48.9483 117.124 48.9912 117 49.0593C116.875 49.1275 116.766 49.2194 116.677 49.3299C116.588 49.4404 116.522 49.5673 116.482 49.7034C116.443 49.8395 116.43 49.9821 116.446 50.123C116.556 51.144 116.664 52.16 116.771 53.173C117.497 60.045 118.201 66.704 119.738 73.443C109.993 56.475 91.7126 51.377 73.1236 52.893C54.8736 54.38 36.3666 62.28 25.5336 71.397C26.0656 70.407 26.5196 69.551 26.7566 69.097C27.1216 68.394 27.6796 67.454 28.3326 66.352C30.2486 63.122 32.9876 58.502 34.1326 54.396C35.3056 50.196 34.8176 46.519 31.0666 44.795C27.6566 43.228 23.6246 44.708 19.6686 48.011C11.1536 55.12 2.76657 70.525 1.43657 75.833C1.36708 76.1108 1.4108 76.4048 1.55811 76.6504C1.70542 76.896 1.94425 77.073 2.22207 77.1425C2.49988 77.212 2.79392 77.1683 3.0395 77.0209C3.28508 76.8736 3.46208 76.6348 3.53157 76.357C4.80957 71.264 12.8796 56.491 21.0536 49.667C24.2486 46.999 27.4096 45.49 30.1636 46.757C32.8826 48.005 32.9016 50.771 32.0516 53.817C30.9436 57.794 28.2776 62.256 26.4046 65.391C25.7546 66.481 25.1996 67.409 24.8386 68.102C24.5486 68.66 23.9686 69.727 23.3156 70.927C21.9956 73.356 20.3756 76.331 20.2616 76.744C20.0466 77.514 20.5556 77.884 20.7316 77.993C20.8676 78.078 21.5756 78.455 22.2066 77.703C31.2066 66.979 52.4446 56.745 73.2966 55.045C93.2626 53.417 112.925 59.658 120.96 81.154Z" fill="#6E6E6E"/>
</g>
<path fill-rule="evenodd" clip-rule="evenodd" d="M120.96 78.315L120.807 78.213C119.164 77.125 117.525 76.039 115.787 75.089C109.814 71.821 102.914 69.689 96.0776 69.597C95.7912 69.5935 95.5151 69.7036 95.3097 69.9032C95.1043 70.1028 94.9863 70.3756 94.9816 70.662C94.9781 70.9484 95.0884 71.2246 95.2882 71.4298C95.488 71.6351 95.7611 71.7527 96.0476 71.757C102.535 71.841 109.081 73.882 114.748 76.983C116.465 77.923 118.085 78.998 119.709 80.075C120.512 80.608 121.316 81.1409 122.133 81.659L122.302 81.769C122.642 81.993 123.36 82.465 123.571 82.537C124.182 82.748 124.571 82.4459 124.733 82.283C124.869 82.148 125.001 81.9539 125.064 81.673C125.114 81.441 125.106 80.979 124.963 80.364C124.667 79.064 123.821 76.684 123.222 74.998C122.913 74.128 122.669 73.442 122.6 73.184C120.544 65.507 119.752 57.997 118.93 50.212C118.82 49.164 118.709 48.112 118.594 47.052C118.562 46.7672 118.418 46.5067 118.195 46.3273C117.972 46.1478 117.686 46.0639 117.402 46.094C117.261 46.1091 117.124 46.152 117 46.2201C116.875 46.2881 116.765 46.3801 116.677 46.4906C116.588 46.6011 116.522 46.7281 116.482 46.8643C116.442 47.0004 116.43 47.143 116.446 47.284C116.556 48.305 116.664 49.322 116.771 50.334C117.497 57.207 118.201 63.866 119.738 70.605C109.993 53.636 91.7126 48.538 73.1236 50.055C54.8736 51.542 36.3666 59.441 25.5336 68.558C26.0656 67.568 26.5196 66.712 26.7566 66.258C27.1216 65.556 27.6796 64.616 28.3326 63.514C30.2486 60.284 32.9876 55.664 34.1326 51.558C35.3056 47.358 34.8176 43.681 31.0666 41.956C27.6566 40.389 23.6246 41.87 19.6686 45.172C11.1536 52.282 2.76657 67.687 1.43657 72.994C1.40216 73.1315 1.39518 73.2745 1.41604 73.4148C1.43689 73.555 1.48517 73.6898 1.55811 73.8114C1.63105 73.933 1.72723 74.039 1.84115 74.1235C1.95507 74.2079 2.08451 74.269 2.22207 74.3035C2.35962 74.3379 2.50261 74.3448 2.64287 74.324C2.78313 74.3031 2.9179 74.2548 3.0395 74.1819C3.1611 74.109 3.26714 74.0128 3.35157 73.8989C3.436 73.785 3.49716 73.6555 3.53156 73.518C4.80957 68.425 12.8796 53.653 21.0536 46.828C24.2486 44.161 27.4096 42.652 30.1636 43.918C32.8826 45.167 32.9016 47.933 32.0516 50.978C30.9436 54.956 28.2776 59.418 26.4046 62.553C25.7546 63.642 25.1996 64.57 24.8386 65.263C24.5486 65.821 23.9686 66.888 23.3156 68.088C21.9956 70.517 20.3756 73.493 20.2616 73.905C20.0466 74.676 20.5556 75.045 20.7316 75.155C20.8676 75.239 21.5756 75.615 22.2066 74.864C31.2066 64.14 52.4446 53.907 73.2966 52.206C93.2626 50.578 112.925 56.82 120.96 78.315Z" fill="#6E6E6E"/>
</g>
</g>
<defs>
<filter id="filter0_f_80_5335" x="-13.5957" y="29.168" width="153.688" height="71.2798" filterUnits="userSpaceOnUse" color-interpolation-filters="sRGB">
<feFlood flood-opacity="0" result="BackgroundImageFix"/>
<feBlend mode="normal" in="SourceGraphic" in2="BackgroundImageFix" result="shape"/>
<feGaussianBlur stdDeviation="7.5" result="effect1_foregroundBlur_80_5335"/>
</filter>
<clipPath id="clip0_80_5335">
<rect width="126" height="123" fill="white"/>
</clipPath>
<clipPath id="clip1_80_5335">
<rect width="155" height="123" fill="white" transform="translate(-14.5)"/>
</clipPath>
</defs>
</svg>
